<svg width="42" height="31" viewBox="0 0 42 31" fill="none" xmlns="http://www.w3.org/2000/svg">
<path d="M40.9556 24.0209L38.6849 8.06251C38.1016 3.95835 34.581 0.916679 30.4354 0.916679H11.5614C7.41583 0.916679 3.89519 3.95835 3.31189 8.06251L1.04119 24.0209C0.582882 27.2292 3.06191 30.0834 6.29089 30.0834C7.70748 30.0834 9.04074 29.5209 10.0407 28.5209L14.7487 23.8334H27.248L31.9353 28.5209C32.9352 29.5209 34.2893 30.0834 35.6851 30.0834C38.9349 30.0834 41.4139 27.2292 40.9556 24.0209ZM18.9152 13.4167H14.7487V17.5833H12.6655V13.4167H8.4991V11.3333H12.6655V7.16668H14.7487V11.3333H18.9152V13.4167ZM27.248 11.3333C26.1023 11.3333 25.1648 10.3958 25.1648 9.25001C25.1648 8.10418 26.1023 7.16668 27.248 7.16668C28.3938 7.16668 29.3313 8.10418 29.3313 9.25001C29.3313 10.3958 28.3938 11.3333 27.248 11.3333ZM31.4145 17.5833C30.2687 17.5833 29.3313 16.6458 29.3313 15.5C29.3313 14.3542 30.2687 13.4167 31.4145 13.4167C32.5602 13.4167 33.4977 14.3542 33.4977 15.5C33.4977 16.6458 32.5602 17.5833 31.4145 17.5833Z" fill="#7900FF"/>
</svg>
